<svg
                xmlns="http://www.w3.org/2000/svg"
                width="300"
                height="301"
                viewBox="0 0 300 301"
                fill="none"
              >
                <path
                  fill-rule="evenodd"
                  clip-rule="evenodd"
                  d="M33 150.712C33 131.856 37.4604 114.042 45.3837 98.2674L47.9124 99.9195C40.2884 115.213 36 132.462 36 150.712C36 188.955 54.8313 222.8 83.727 243.48L82.2446 246.108C52.4406 224.901 33 190.077 33 150.712ZM219.542 244.811C248.334 223.497 267 189.284 267 150.712C267 132.643 262.904 115.532 255.591 100.254L253.111 102.026C260.094 116.79 264 133.295 264 150.712C264 188.324 245.785 221.682 217.695 242.446L219.542 244.811Z"
                  fill="#0E9C62"
                ></path>
                <path
                  d="M52.9665 72.6445L55.0483 74.3449L52.0878 77.9695L63.1289 86.9877L60.9882 89.6086L49.9471 80.5904L47.0017 84.1964L44.9199 82.496L52.9665 72.6445Z"
                  fill="#0E9C62"
                ></path>
                <path
                  d="M69.6891 56.9695L80.9034 69.6715L78.3486 71.927L73.4721 66.4036L68.0387 71.2007L72.9152 76.7241L70.3784 78.9637L59.1641 66.2618L61.7009 64.0221L66.2438 69.1677L71.6772 64.3706L67.1343 59.2251L69.6891 56.9695Z"
                  fill="#0E9C62"
                ></path>
                <path
                  d="M80.8892 52.5852L83.2086 56.3148L88.3037 53.1462L89.6725 55.3473L84.5774 58.5159L86.9856 62.3882L92.6921 58.8393L94.1243 61.1423L85.5442 66.4782L76.596 52.0897L85.1761 46.7538L86.5956 49.0364L80.8892 52.5852Z"
                  fill="#0E9C62"
                ></path>
                <path
                  d="M108.388 36.3285L114.076 52.2891L110.889 53.4252L105.2 37.4646L108.388 36.3285Z"
                  fill="#0E9C62"
                ></path>
                <path
                  d="M129.712 48.0979L124.345 42.5804L122.897 42.9212L124.408 49.3457L121.114 50.1209L117.233 33.6273L123.518 32.1486C125.433 31.6978 126.999 31.8224 128.216 32.5223C129.448 33.2186 130.244 34.3298 130.603 35.8562C130.896 37.1021 130.792 38.2281 130.289 39.234C129.801 40.2363 128.936 41.0316 127.694 41.6197L133.356 47.2403L129.712 48.0979ZM122.363 40.6551L125.073 40.0174C126.958 39.574 127.704 38.519 127.312 36.8525C127.125 36.0582 126.747 35.498 126.177 35.1719C125.619 34.8265 124.857 34.7674 123.891 34.9946L121.181 35.6323L122.363 40.6551Z"
                  fill="#0E9C62"
                ></path>
                <path
                  d="M136.939 30.0435L138.964 46.866L135.604 47.2705L133.579 30.448L136.939 30.0435Z"
                  fill="#0E9C62"
                ></path>
                <path
                  d="M158.182 41.8297C158.182 42.6937 157.966 43.4937 157.534 44.2297C157.102 44.9497 156.462 45.5337 155.614 45.9817C154.766 46.4137 153.734 46.6297 152.518 46.6297C151.318 46.6297 150.246 46.4297 149.302 46.0297C148.358 45.6137 147.598 45.0217 147.022 44.2537C146.462 43.4857 146.142 42.5897 146.062 41.5657H149.662C149.742 42.2537 150.014 42.8297 150.478 43.2937C150.958 43.7417 151.59 43.9657 152.374 43.9657C153.078 43.9657 153.614 43.7817 153.982 43.4137C154.366 43.0297 154.558 42.5417 154.558 41.9497C154.558 41.4217 154.406 40.9897 154.102 40.6537C153.798 40.3017 153.414 40.0217 152.95 39.8137C152.486 39.6057 151.846 39.3657 151.03 39.0937C149.974 38.7417 149.11 38.3977 148.438 38.0617C147.766 37.7097 147.19 37.2057 146.71 36.5497C146.246 35.8937 146.014 35.0377 146.014 33.9817C146.014 32.5257 146.534 31.3817 147.574 30.5497C148.63 29.7017 150.022 29.2777 151.75 29.2777C153.542 29.2777 154.966 29.7097 156.022 30.5737C157.094 31.4377 157.702 32.5897 157.846 34.0297H154.198C154.102 33.4217 153.846 32.9257 153.43 32.5417C153.014 32.1417 152.446 31.9417 151.726 31.9417C151.102 31.9417 150.598 32.1097 150.214 32.4457C149.83 32.7657 149.638 33.2377 149.638 33.8617C149.638 34.3577 149.782 34.7737 150.07 35.1097C150.374 35.4297 150.75 35.6937 151.198 35.9017C151.662 36.1097 152.286 36.3417 153.07 36.5977C154.158 36.9817 155.038 37.3417 155.71 37.6777C156.398 38.0137 156.982 38.5177 157.462 39.1897C157.942 39.8617 158.182 40.7417 158.182 41.8297Z"
                  fill="#0E9C62"
                ></path>
                <path
                  d="M179.466 32.2383L176.794 48.9703L173.429 48.4329L174.591 41.1571L167.433 40.0141L166.272 47.29L162.93 46.7563L165.602 30.0243L168.943 30.5579L167.861 37.3361L175.018 38.479L176.101 31.7009L179.466 32.2383Z"
                  fill="#0E9C62"
                ></path>
                <path
                  d="M205.547 41.0715C207.472 41.9398 208.846 43.156 209.667 44.7201C210.489 46.2842 210.719 48.0116 210.358 49.9022L207.12 48.4419C207.16 47.4592 206.931 46.5661 206.433 45.7624C205.95 44.9654 205.212 44.3432 204.221 43.8959C203.404 43.5275 202.575 43.3995 201.735 43.5119C200.894 43.6243 200.121 43.9774 199.414 44.5714C198.707 45.1654 198.124 45.9729 197.663 46.9938C197.209 48.0002 196.994 48.9649 197.016 49.8877C197.039 50.8106 197.286 51.6243 197.758 52.3287C198.23 53.0331 198.875 53.5694 199.692 53.9378C200.683 54.3851 201.638 54.526 202.555 54.3604C203.487 54.2015 204.308 53.7819 205.018 53.1019L208.256 54.5622C207.078 56.0845 205.631 57.0554 203.915 57.4749C202.199 57.8944 200.378 57.67 198.453 56.8017C196.98 56.1373 195.822 55.2204 194.981 54.051C194.16 52.8735 193.706 51.5454 193.618 50.0665C193.545 48.5943 193.851 47.0997 194.535 45.5828C195.225 44.0514 196.147 42.8258 197.299 41.9061C198.465 40.993 199.758 40.4615 201.177 40.3117C202.603 40.1473 204.059 40.4005 205.547 41.0715Z"
                  fill="#0E9C62"
                ></path>
                <path
                  d="M221.343 66.1598L215.751 62.3054L212.828 64.4306L209.884 62.4013L224.528 52.149L227.71 54.3417L223.322 71.6625L220.377 69.6332L221.343 66.1598ZM222.049 63.5278L224.053 56.2225L217.939 60.6949L222.049 63.5278Z"
                  fill="#0E9C62"
                ></path>
                <path
                  d="M245.89 69.6009L244.068 71.5774L238.827 66.7465L235.753 70.0819L239.953 73.9531L238.196 75.859L233.996 71.9878L229.165 77.2291L226.677 74.9357L238.161 62.4766L245.89 69.6009Z"
                  fill="#0E9C62"
                ></path>
                <path
                  d="M248.942 77.316L245.553 80.1088L249.368 84.7395L247.368 86.3877L243.552 81.7571L240.033 84.6568L244.306 89.8431L242.213 91.5676L235.788 83.7696L248.865 72.995L255.29 80.793L253.216 82.5023L248.942 77.316Z"
                  fill="#0E9C62"
                ></path>
                <path
                  d="M84.5255 214.174V220.462H81.1415V203.518H87.3095C89.3095 203.518 90.8135 203.998 91.8215 204.958C92.8455 205.918 93.3575 207.222 93.3575 208.87C93.3575 210.486 92.8295 211.774 91.7735 212.734C90.7335 213.694 89.2455 214.174 87.3095 214.174H84.5255ZM86.9495 211.462C88.9335 211.462 89.9255 210.598 89.9255 208.87C89.9255 208.022 89.6935 207.374 89.2295 206.926C88.7655 206.478 88.0055 206.254 86.9495 206.254H84.5255V211.462H86.9495Z"
                  fill="#0E9C62"
                ></path>
                <path
                  d="M101.07 203.518V213.454C101.07 214.782 101.358 215.782 101.934 216.454C102.526 217.11 103.374 217.438 104.478 217.438C105.566 217.438 106.398 217.11 106.974 216.454C107.566 215.782 107.862 214.782 107.862 213.454V203.518H111.222V213.454C111.222 215.022 110.926 216.35 110.334 217.438C109.758 218.51 108.95 219.31 107.91 219.838C106.886 220.366 105.718 220.63 104.406 220.63C102.374 220.63 100.75 220.022 99.5335 218.806C98.3175 217.59 97.7095 215.806 97.7095 213.454V203.518H101.07Z"
                  fill="#0E9C62"
                ></path>
                <path
                  d="M125.894 211.726C126.918 211.934 127.734 212.422 128.342 213.19C128.966 213.942 129.278 214.83 129.278 215.854C129.278 217.278 128.798 218.406 127.838 219.238C126.894 220.054 125.518 220.462 123.71 220.462H116.438V203.518H123.566C125.278 203.518 126.59 203.894 127.502 204.646C128.43 205.398 128.894 206.454 128.894 207.814C128.894 208.87 128.614 209.734 128.054 210.406C127.51 211.078 126.79 211.518 125.894 211.726ZM119.822 210.622H122.87C123.718 210.622 124.358 210.438 124.79 210.07C125.238 209.686 125.462 209.142 125.462 208.438C125.462 207.734 125.246 207.19 124.814 206.806C124.382 206.422 123.718 206.23 122.822 206.23H119.822V210.622ZM123.038 217.702C123.934 217.702 124.622 217.51 125.102 217.126C125.582 216.726 125.822 216.15 125.822 215.398C125.822 214.646 125.574 214.07 125.078 213.67C124.598 213.254 123.91 213.046 123.014 213.046H119.822V217.702H123.038Z"
                  fill="#0E9C62"
                ></path>
                <path
                  d="M180.738 211.726C181.762 211.934 182.578 212.422 183.186 213.19C183.81 213.942 184.122 214.83 184.122 215.854C184.122 217.278 183.642 218.406 182.682 219.238C181.738 220.054 180.362 220.462 178.554 220.462H171.282V203.518H178.41C180.122 203.518 181.434 203.894 182.346 204.646C183.274 205.398 183.738 206.454 183.738 207.814C183.738 208.87 183.458 209.734 182.898 210.406C182.354 211.078 181.634 211.518 180.738 211.726ZM174.666 210.622H177.714C178.562 210.622 179.202 210.438 179.634 210.07C180.082 209.686 180.306 209.142 180.306 208.438C180.306 207.734 180.09 207.19 179.658 206.806C179.226 206.422 178.562 206.23 177.666 206.23H174.666V210.622ZM177.882 217.702C178.778 217.702 179.466 217.51 179.946 217.126C180.426 216.726 180.666 216.15 180.666 215.398C180.666 214.646 180.418 214.07 179.922 213.67C179.442 213.254 178.754 213.046 177.858 213.046H174.666V217.702H177.882Z"
                  fill="#0E9C62"
                ></path>
                <path
                  d="M199.063 217.054H192.271L191.071 220.462H187.495L193.735 203.71H197.599L203.815 220.462H200.239L199.063 217.054ZM198.151 214.486L195.655 207.334L193.159 214.486H198.151Z"
                  fill="#0E9C62"
                ></path>
                <path
                  d="M216.723 220.462L212.763 213.862H211.275V220.462H207.891V203.518H214.347C216.315 203.518 217.811 203.998 218.835 204.958C219.875 205.918 220.395 207.182 220.395 208.75C220.395 210.03 220.035 211.102 219.315 211.966C218.611 212.83 217.587 213.406 216.243 213.694L220.467 220.462H216.723ZM211.275 211.534H214.059C215.995 211.534 216.963 210.678 216.963 208.966C216.963 208.15 216.723 207.518 216.243 207.07C215.779 206.606 215.051 206.374 214.059 206.374H211.275V211.534Z"
                  fill="#0E9C62"
                ></path>
                <path
                  d="M162.507 211.882C162.579 212.17 162.615 212.446 162.615 212.71C162.615 213.55 162.291 214.342 161.643 215.086C161.019 215.83 160.227 216.358 159.267 216.67C158.859 216.79 158.379 216.85 157.827 216.85C157.611 218.89 156.999 220.69 155.991 222.25C155.007 223.786 153.711 224.986 152.103 225.85C150.495 226.69 148.695 227.11 146.703 227.11C144.423 227.11 142.623 226.534 141.303 225.382C140.007 224.23 139.359 222.67 139.359 220.702C139.359 219.382 139.647 218.086 140.223 216.814C140.823 215.518 141.627 214.402 142.635 213.466C143.667 212.53 144.795 211.882 146.019 211.522V211.378C145.275 210.754 144.747 210.094 144.435 209.398C144.123 208.702 143.967 207.838 143.967 206.806C143.967 205.51 144.315 204.298 145.011 203.17C145.731 202.018 146.691 201.106 147.891 200.434C149.115 199.738 150.435 199.39 151.851 199.39C153.483 199.39 154.827 199.858 155.883 200.794C156.939 201.73 157.467 202.918 157.467 204.358C157.467 205.342 157.215 206.146 156.711 206.77C156.207 207.394 155.547 207.706 154.731 207.706C153.819 207.706 153.087 207.334 152.535 206.59C152.967 206.326 153.315 205.918 153.579 205.366C153.867 204.814 154.011 204.226 154.011 203.602C154.011 202.93 153.843 202.402 153.507 202.018C153.171 201.634 152.715 201.442 152.139 201.442C151.515 201.442 150.915 201.682 150.339 202.162C149.763 202.642 149.295 203.29 148.935 204.106C148.599 204.898 148.431 205.738 148.431 206.626C148.431 207.826 148.755 208.846 149.403 209.686C150.051 210.502 150.939 211.054 152.067 211.342V211.486C150.939 211.702 149.871 212.23 148.863 213.07C147.879 213.886 147.087 214.894 146.487 216.094C145.911 217.27 145.623 218.47 145.623 219.694C145.623 220.942 145.935 221.914 146.559 222.61C147.183 223.306 148.047 223.654 149.151 223.654C150.183 223.654 151.203 223.366 152.211 222.79C153.219 222.214 154.083 221.41 154.803 220.378C155.523 219.346 156.003 218.182 156.243 216.886C155.715 216.886 155.163 216.958 154.587 217.102C153.267 217.534 152.319 218.17 151.743 219.01L151.635 219.046C151.371 218.71 151.155 218.278 150.987 217.75C150.891 217.462 150.843 217.15 150.843 216.814C150.843 215.998 151.131 215.266 151.707 214.618C152.283 213.97 153.003 213.514 153.867 213.25C154.539 213.058 155.463 212.914 156.639 212.818C157.431 212.77 158.115 212.686 158.691 212.566C159.243 212.398 159.795 212.122 160.347 211.738C160.923 211.33 161.355 210.934 161.643 210.55H161.715C162.075 210.91 162.339 211.354 162.507 211.882Z"
                  fill="#0E9C62"
                ></path>
                <path
                  d="M99.4284 256.513C99.1183 257.082 98.689 257.531 98.1403 257.861C97.5974 258.18 96.9664 258.335 96.2471 258.325C95.5336 258.305 94.7765 258.077 93.9757 257.641C93.1854 257.21 92.5512 256.694 92.0731 256.092C91.6007 255.479 91.3126 254.816 91.2089 254.104C91.1157 253.397 91.2266 252.692 91.5414 251.989L93.9122 253.281C93.718 253.763 93.6904 254.24 93.8294 254.712C93.9848 255.179 94.3206 255.553 94.8369 255.835C95.3005 256.087 95.7196 256.159 96.094 256.048C96.4847 255.933 96.7862 255.681 96.9987 255.291C97.1882 254.943 97.2431 254.604 97.1635 254.274C97.0896 253.933 96.9372 253.611 96.7063 253.307C96.4754 253.004 96.14 252.616 95.7003 252.144C95.1312 251.533 94.6856 250.997 94.3637 250.534C94.0474 250.061 93.849 249.522 93.7683 248.918C93.6982 248.32 93.8526 247.673 94.2316 246.977C94.7541 246.018 95.5071 245.452 96.4906 245.277C97.4904 245.097 98.5593 245.318 99.6973 245.938C100.877 246.581 101.66 247.377 102.046 248.325C102.441 249.278 102.428 250.255 102.006 251.255L99.604 249.946C99.759 249.511 99.7684 249.093 99.6322 248.69C99.5018 248.278 99.1995 247.942 98.7254 247.684C98.3144 247.46 97.9222 247.39 97.5488 247.473C97.181 247.546 96.8852 247.788 96.6612 248.199C96.4832 248.525 96.4288 248.851 96.4979 249.176C96.5832 249.496 96.7361 249.804 96.9565 250.102C97.1874 250.406 97.5151 250.782 97.9395 251.232C98.5182 251.876 98.9686 252.429 99.2905 252.891C99.623 253.359 99.8267 253.901 99.9017 254.516C99.9766 255.13 99.8189 255.796 99.4284 256.513Z"
                  fill="#0E9C62"
                ></path>
                <path
                  d="M110.776 251.421L105.883 263.149L103.54 262.172L108.434 250.444L110.776 251.421Z"
                  fill="#0E9C62"
                ></path>
                <path
                  d="M122.285 268.589L119.852 267.867L116.856 257.966L114.399 266.25L111.966 265.528L115.58 253.345L118.013 254.066L120.988 264.036L123.466 255.684L125.899 256.406L122.285 268.589Z"
                  fill="#0E9C62"
                ></path>
                <path
                  d="M134.92 257.823C136.485 258.069 137.72 258.675 138.625 259.643C139.53 260.611 140.039 261.815 140.154 263.254L137.522 262.841C137.355 262.123 137.012 261.522 136.492 261.04C135.985 260.559 135.328 260.256 134.522 260.13C133.858 260.026 133.233 260.098 132.648 260.346C132.062 260.594 131.573 261.003 131.18 261.573C130.787 262.143 130.525 262.843 130.395 263.673C130.267 264.491 130.302 265.232 130.502 265.895C130.702 266.558 131.043 267.097 131.524 267.512C132.005 267.928 132.578 268.188 133.242 268.292C134.048 268.418 134.766 268.331 135.397 268.029C136.039 267.728 136.549 267.262 136.928 266.629L139.56 267.041C139.01 268.376 138.157 269.366 136.999 270.011C135.841 270.655 134.48 270.855 132.915 270.609C131.718 270.422 130.698 269.988 129.857 269.31C129.03 268.621 128.438 267.751 128.08 266.699C127.735 265.649 127.659 264.507 127.852 263.275C128.047 262.03 128.47 260.96 129.12 260.066C129.783 259.174 130.612 258.533 131.608 258.142C132.607 257.74 133.71 257.634 134.92 257.823Z"
                  fill="#0E9C62"
                ></path>
                <path
                  d="M145.026 260.933L144.941 264.225L149.439 264.342L149.389 266.285L144.89 266.169L144.802 269.588L149.84 269.718L149.787 271.752L142.212 271.555L142.541 258.851L150.117 259.048L150.064 261.063L145.026 260.933Z"
                  fill="#0E9C62"
                ></path>
                <path
                  d="M163.027 260.574L162.667 258.225L167.186 257.532L169.114 270.092L166.481 270.497L164.913 260.284L163.027 260.574Z"
                  fill="#0E9C62"
                ></path>
                <path
                  d="M176.522 264.707C177.027 265.865 177.814 266.302 178.881 266.019C179.693 265.803 180.185 265.294 180.356 264.491C180.525 263.677 180.385 262.516 179.936 261.009C179.898 261.615 179.651 262.158 179.195 262.639C178.748 263.106 178.164 263.434 177.445 263.625C176.262 263.938 175.234 263.832 174.362 263.306C173.499 262.765 172.894 261.84 172.546 260.529C172.334 259.729 172.307 258.972 172.466 258.26C172.621 257.536 172.97 256.909 173.513 256.38C174.067 255.849 174.802 255.461 175.719 255.218C177.505 254.745 178.879 254.964 179.841 255.876C180.8 256.776 181.534 258.189 182.045 260.114C182.626 262.307 182.726 264.062 182.343 265.38C181.971 266.695 180.991 267.563 179.402 267.985C178.555 268.209 177.78 268.235 177.076 268.062C176.384 267.885 175.794 267.557 175.307 267.078C174.828 266.584 174.468 265.997 174.225 265.316L176.522 264.707ZM179.169 258.959C178.997 258.309 178.664 257.827 178.17 257.511C177.685 257.18 177.077 257.111 176.347 257.305C175.72 257.471 175.271 257.789 174.998 258.259C174.725 258.728 174.677 259.294 174.852 259.955C175.036 260.651 175.365 261.141 175.838 261.425C176.319 261.695 176.878 261.745 177.516 261.576C178.108 261.419 178.572 261.11 178.909 260.648C179.254 260.172 179.341 259.609 179.169 258.959Z"
                  fill="#0E9C62"
                ></path>
                <path
                  d="M192.619 251.728L192.387 263.598L189.949 264.579L190.339 252.956L184.878 255.152L184.065 253.131L191.914 249.975L192.619 251.728Z"
                  fill="#0E9C62"
                ></path>
                <path
                  d="M200.72 257.8C202.928 253.37 203.585 250.34 202.689 248.71C202.418 248.215 202.083 247.893 201.685 247.742C201.298 247.585 200.852 247.645 200.347 247.922C199.306 248.494 199.143 249.507 199.86 250.962L197.699 252.149C197.04 250.799 196.894 249.586 197.26 248.508C197.621 247.42 198.364 246.567 199.49 245.949C200.636 245.32 201.679 245.137 202.618 245.402C203.562 245.65 204.306 246.268 204.849 247.257C205.276 248.035 205.475 248.946 205.446 249.989C205.421 251.016 205.238 252.054 204.897 253.104C204.55 254.143 204.118 255.113 203.6 256.014L208.475 253.336L209.471 255.151L201.63 259.457L200.72 257.8Z"
                  fill="#0E9C62"
                ></path>
                <path
                  fill-rule="evenodd"
                  clip-rule="evenodd"
                  d="M150 294.712C229.529 294.712 294 230.241 294 150.712C294 71.1827 229.529 6.71173 150 6.71173C70.471 6.71173 6 71.1827 6 150.712C6 230.241 70.471 294.712 150 294.712ZM150 300.712C232.843 300.712 300 233.554 300 150.712C300 67.869 232.843 0.711731 150 0.711731C67.1573 0.711731 0 67.869 0 150.712C0 233.554 67.1573 300.712 150 300.712Z"
                  fill="#0E9C62"
                ></path>
                <path
                  fill-rule="evenodd"
                  clip-rule="evenodd"
                  d="M131.705 98.02C131.304 95.3482 132.217 92.5075 134.444 90.6072C137.255 88.211 141.306 88.3625 144.171 90.5781C144.486 90.8213 144.786 91.0893 145.069 91.3815L146.19 92.5374L147.312 91.3815C147.593 91.0914 147.892 90.8251 148.204 90.5834C151.073 88.3627 155.123 88.2092 157.937 90.6072C160.163 92.5076 161.076 95.3484 160.674 98.0204C160.489 99.2522 160.024 100.448 159.28 101.499L159.279 101.5C159.046 101.831 158.784 102.147 158.495 102.445L152.425 108.713L160.724 104.097C162.039 103.365 163.483 103.043 164.902 103.089C167.83 103.183 170.652 104.841 172.014 107.699C173.602 111.038 172.406 114.911 169.518 117.107C169.204 117.346 168.869 117.565 168.516 117.762L167.11 118.546L167.936 119.929C168.145 120.277 168.326 120.637 168.48 121.003C169.878 124.344 168.976 128.296 165.934 130.392C162.06 133.056 156.721 131.82 154.354 127.873L146.267 114.37C146.216 114.373 146.165 114.373 146.113 114.371L138.027 127.873C135.66 131.82 130.32 133.056 126.447 130.392C123.404 128.296 122.502 124.344 123.90 121.003C124.054 120.637 124.236 120.277 124.445 119.929L125.271 118.546L123.864 117.762C123.511 117.565 123.177 117.346 122.862 117.107C119.975 114.911 118.778 111.038 120.366 107.699C121.728 104.842 124.549 103.184 127.475 103.089C128.896 103.042 130.341 103.365 131.656 104.097L139.944 108.706L133.88 102.445C133.592 102.148 133.332 101.833 133.099 101.504L133.099 101.503C132.354 100.451 131.89 99.2533 131.705 98.02ZM125.988 97.5497C125.762 93.4338 127.355 89.2333 130.778 86.3121L130.781 86.3093C135.375 82.3944 141.532 82.4022 146.191 85.1463C150.85 82.4038 157.003 82.3923 161.6 86.3093L161.603 86.3121C165.025 89.233 166.618 93.4336 166.392 97.5495C170.857 98.1182 175.001 100.84 177.112 105.27L177.113 105.272L177.114 105.274C179.708 110.727 178.104 116.668 174.249 120.458C175.694 125.669 174.108 131.618 169.137 135.042L169.136 135.043L169.134 135.5C162.537 139.581 153.529 137.476 149.511 130.777L146.19 125.232L142.871 130.774L142.87 130.776L142.87 130.777C138.852 137.476 129.843 139.581 123.247 135.045L123.245 135.043L123.243 135.042C118.273 131.618 116.687 125.669 118.131 120.458C114.277 116.668 112.673 110.727 115.267 105.274L115.269 105.27C117.38 100.841 121.523 98.1186 125.988 97.5497Z"
                  fill="#0E9C62"
                ></path>
                <path
                  d="M172.088 131.957H166.201V127.051C166.201 125.426 164.883 124.108 163.257 124.108H129.899C128.273 124.108 126.955 125.426 126.955 127.051L126.955 176.108C126.955 177.734 128.273 179.052 129.899 179.052H163.257C164.883 179.052 166.201 177.734 166.201 176.108V170.944L176.086 166.532C179.617 164.956 181.899 161.439 181.899 157.572V141.769C181.899 136.359 177.498 131.957 172.088 131.957ZM174.05 157.572C174.05 157.951 173.94 158.322 173.733 158.64C173.527 158.958 173.233 159.209 172.887 159.364L166.201 162.348V139.806H172.088C173.169 139.806 174.05 140.687 174.05 141.769V157.572ZM152.465 167.278C151.381 167.278 150.502 166.4 150.502 165.316V137.844C150.502 136.76 151.381 135.882 152.465 135.882C153.548 135.882 154.427 136.76 154.427 137.844V165.316C154.427 166.4 153.548 167.278 152.465 167.278ZM140.691 167.278C139.607 167.278 138.729 166.4 138.729 165.316V137.844C138.729 136.76 139.607 135.882 140.691 135.882C141.775 135.882 142.653 136.76 142.653 137.844V165.316C142.653 166.4 141.775 167.278 140.691 167.278Z"
                  fill="#0E9C62"
                ></path>
              </svg>