<svg width="141" height="32" viewBox="0 0 141 32" fill="none" xmlns="http://www.w3.org/2000/svg">
<path fill-rule="evenodd" clip-rule="evenodd" d="M5.90157 4.9361C5.76808 4.04547 6.07241 3.09857 6.81457 2.46514C7.75181 1.66644 9.10208 1.71691 10.0571 2.45547C10.1619 2.53652 10.262 2.62585 10.3562 2.72327L10.7301 3.10856L11.104 2.72327C11.1977 2.62655 11.2972 2.5378 11.4013 2.45721C12.3575 1.71699 13.7077 1.66581 14.6456 2.46514C15.3878 3.09861 15.6922 4.04557 15.5582 4.93623C15.4964 5.34684 15.3415 5.74547 15.0933 6.09591C15.0933 6.096 15.0932 6.09608 15.0931 6.09617C15.0152 6.20626 14.928 6.31159 14.8316 6.41104L12.8082 8.50038L15.5748 6.96161C16.0129 6.71777 16.4943 6.6104 16.9674 6.62561C17.9433 6.65698 18.8841 7.20985 19.3381 8.16255C19.8675 9.27544 19.4686 10.5663 18.5061 11.2984C18.4013 11.3781 18.2898 11.4512 18.1721 11.5167L17.7032 11.7781L17.9786 12.239C18.0483 12.3552 18.1087 12.475 18.1599 12.5972C18.6261 13.7109 18.3254 15.0282 17.3113 15.7268C16.0201 16.6148 14.2403 16.2027 13.4512 14.887L10.7557 10.3862C10.7386 10.387 10.7215 10.387 10.7045 10.3863L8.00897 14.887C7.21989 16.2027 5.44004 16.6148 4.14889 15.7268C3.13483 15.0282 2.83411 13.7109 3.30031 12.5972C3.35147 12.475 3.41187 12.3552 3.48158 12.239L3.75697 11.7781L3.28804 11.5167C3.17036 11.4512 3.05889 11.3781 2.9541 11.2984C1.9916 10.5663 1.59273 9.27544 2.12206 8.16255C2.57593 7.21017 3.51626 6.65736 4.49175 6.62564C4.96521 6.61024 5.44695 6.7176 5.88537 6.96161L8.64794 8.49812L6.62667 6.41104C6.5308 6.31193 6.44405 6.20697 6.36642 6.09728C6.36636 6.0972 6.3663 6.09711 6.36624 6.09703C6.11807 5.74628 5.96318 5.34718 5.90157 4.9361ZM3.99587 4.77931C3.92072 3.40737 4.45173 2.00719 5.59261 1.03345L5.5937 1.03252C7.12501 -0.272451 9.17745 -0.26984 10.7305 0.644867C12.2833 -0.269309 14.3344 -0.273141 15.8665 1.03252L15.8676 1.03345C17.0084 2.0071 17.5395 3.40728 17.464 4.77927C18.9523 4.96882 20.3336 5.87624 21.0373 7.35278L21.0376 7.35343L21.0379 7.35407C21.9025 9.17191 21.368 11.1521 20.0831 12.4154C20.5646 14.1523 20.036 16.1355 18.3791 17.2768L18.3785 17.2772L18.3779 17.2776C16.1792 18.7899 13.1762 18.0881 11.837 15.8551L10.7301 14.0069L9.62378 15.8541L9.62349 15.8546L9.62319 15.8551C8.28401 18.0881 5.28103 18.7899 3.08225 17.2776L3.08166 17.2772L3.08107 17.2768C1.42423 16.1355 0.895545 14.1523 1.37713 12.4154C0.0921998 11.1521 -0.442354 9.17192 0.422272 7.35407L0.422888 7.35278C1.12651 5.87634 2.50771 4.96895 3.99587 4.77931Z" fill="#0E9C62"/>
<g clip-path="url(#clip0)">
<path d="M19.3625 16.2485H17.4002V14.6132C17.4002 14.0713 16.961 13.6321 16.4191 13.6321H5.2995C4.75762 13.6321 4.31836 14.0713 4.31836 14.6132V30.9655C4.31836 31.5074 4.75762 31.9467 5.2995 31.9467H16.4191C16.961 31.9467 17.4002 31.5074 17.4002 30.9655V29.2441L20.6955 27.7733C21.8724 27.248 22.633 26.0757 22.633 24.7868V19.5189C22.633 17.7156 21.1658 16.2485 19.3625 16.2485ZM20.0166 24.7868C20.0165 24.9131 19.9799 25.0368 19.9111 25.1427C19.8424 25.2487 19.7444 25.3326 19.6291 25.3841L17.4002 26.3789V18.8648H19.3625C19.7231 18.8648 20.0166 19.1583 20.0166 19.5189V24.7868ZM12.8216 28.0221C12.4603 28.0221 12.1675 27.7293 12.1675 27.368V18.2107C12.1675 17.8495 12.4603 17.5566 12.8216 17.5566C13.1828 17.5566 13.4757 17.8495 13.4757 18.2107V27.368C13.4757 27.7293 13.1828 28.0221 12.8216 28.0221ZM8.89701 28.0221C8.53579 28.0221 8.24292 27.7293 8.24292 27.368V18.2107C8.24292 17.8495 8.53579 17.5566 8.89701 17.5566C9.25823 17.5566 9.5511 17.8495 9.5511 18.2107V27.368C9.5511 27.7293 9.25823 28.0221 8.89701 28.0221Z" fill="#0E9C62"/>
</g>
<path d="M46.3 22.132C46.3 22.404 46.356 22.612 46.468 22.756C46.588 22.9 46.764 23.016 46.996 23.104L47.512 23.272C47.936 23.456 48.148 23.756 48.148 24.172C48.148 24.436 48.068 24.64 47.908 24.784C47.748 24.928 47.508 25 47.188 25H41.836C41.524 25 41.288 24.928 41.128 24.784C40.968 24.64 40.888 24.436 40.888 24.172C40.888 23.756 41.1 23.456 41.524 23.272L42.028 23.104C42.26 23.016 42.436 22.9 42.556 22.756C42.676 22.612 42.736 22.404 42.736 22.132V11.068C42.736 10.796 42.676 10.588 42.556 10.444C42.444 10.3 42.276 10.184 42.052 10.096L41.524 9.928C41.1 9.744 40.888 9.444 40.888 9.028C40.888 8.764 40.968 8.56 41.128 8.416C41.288 8.272 41.524 8.2 41.836 8.2H47.188C47.508 8.2 47.748 8.272 47.908 8.416C48.068 8.56 48.148 8.764 48.148 9.028C48.148 9.444 47.936 9.744 47.512 9.928L46.972 10.096C46.756 10.184 46.588 10.3 46.468 10.444C46.356 10.588 46.3 10.796 46.3 11.068V22.132ZM53.7629 18.892C53.7629 17.74 53.9149 16.784 54.2189 16.024C54.5309 15.264 54.9429 14.696 55.4549 14.32C55.9749 13.944 56.5509 13.756 57.1829 13.756C57.8789 13.756 58.4189 13.972 58.8029 14.404C59.1949 14.828 59.3909 15.444 59.3909 16.252C59.3909 16.948 59.2509 17.464 58.9709 17.8C58.6989 18.128 58.3389 18.292 57.8909 18.292C57.4269 18.292 57.0749 18.18 56.8349 17.956C56.6029 17.724 56.4869 17.404 56.4869 16.996V16.576C56.4869 16.336 56.4269 16.16 56.3069 16.048C56.1949 15.936 56.0349 15.88 55.8269 15.88C55.5549 15.88 55.2949 15.988 55.0469 16.204C54.8069 16.42 54.6109 16.744 54.4589 17.176C54.3149 17.6 54.2429 18.128 54.2429 18.76L53.7629 18.892ZM54.0629 14.704L54.2429 17.188V22.468C54.2429 22.764 54.2909 22.992 54.3869 23.152C54.4909 23.312 54.6549 23.408 54.8789 23.44L55.7429 23.548C55.9669 23.58 56.1309 23.664 56.2349 23.8C56.3389 23.936 56.3909 24.1 56.3909 24.292C56.3909 24.508 56.3229 24.68 56.1869 24.808C56.0509 24.936 55.8549 25 55.5989 25H50.5829C50.3429 25 50.1509 24.94 50.0069 24.82C49.8629 24.692 49.7909 24.516 49.7909 24.292C49.7909 24.116 49.8349 23.972 49.9229 23.86C50.0109 23.748 50.1349 23.644 50.2949 23.548L50.6309 23.44C50.7829 23.376 50.8949 23.28 50.9669 23.152C51.0389 23.016 51.0749 22.788 51.0749 22.468V17.164C51.0749 16.884 51.0349 16.688 50.9549 16.576C50.8829 16.464 50.7709 16.384 50.6189 16.336L50.1029 16.276C49.9509 16.212 49.8309 16.128 49.7429 16.024C49.6629 15.92 49.6229 15.792 49.6229 15.64C49.6229 15.464 49.6789 15.312 49.7909 15.184C49.9029 15.056 50.0829 14.948 50.3309 14.86L52.2749 14.14C52.5389 14.036 52.7629 13.956 52.9469 13.9C53.1309 13.844 53.2829 13.816 53.4029 13.816C53.5949 13.816 53.7429 13.88 53.8469 14.008C53.9589 14.136 54.0309 14.368 54.0629 14.704ZM64.8492 14.62V22.468C64.8492 22.788 64.8852 23.016 64.9572 23.152C65.0372 23.28 65.1492 23.376 65.2932 23.44L65.6292 23.548C65.7892 23.636 65.9092 23.74 65.9892 23.86C66.0772 23.972 66.1212 24.116 66.1212 24.292C66.1212 24.516 66.0532 24.692 65.9172 24.82C65.7812 24.94 65.5892 25 65.3412 25H61.1532C60.9052 25 60.7092 24.94 60.5652 24.82C60.4292 24.692 60.3612 24.516 60.3612 24.292C60.3612 24.116 60.4052 23.972 60.4932 23.86C60.5812 23.74 60.7052 23.636 60.8652 23.548L61.2012 23.44C61.3532 23.376 61.4652 23.28 61.5372 23.152C61.6092 23.016 61.6452 22.788 61.6452 22.468V17.164C61.6452 16.884 61.6052 16.688 61.5252 16.576C61.4532 16.464 61.3412 16.384 61.1892 16.336L60.6732 16.276C60.5212 16.204 60.4012 16.12 60.3132 16.024C60.2332 15.92 60.1932 15.792 60.1932 15.64C60.1932 15.464 60.2452 15.312 60.3492 15.184C60.4612 15.056 60.6452 14.948 60.9012 14.86L62.8092 14.152C63.1132 14.032 63.3612 13.948 63.5532 13.9C63.7532 13.844 63.9412 13.816 64.1172 13.816C64.3492 13.816 64.5292 13.892 64.6572 14.044C64.7852 14.188 64.8492 14.38 64.8492 14.62ZM63.0252 12.1C62.4092 12.1 61.9132 11.936 61.5372 11.608C61.1692 11.272 60.9852 10.832 60.9852 10.288C60.9852 9.744 61.1692 9.308 61.5372 8.98C61.9132 8.652 62.4092 8.488 63.0252 8.488C63.6492 8.488 64.1452 8.652 64.5132 8.98C64.8892 9.308 65.0772 9.744 65.0772 10.288C65.0772 10.832 64.8892 11.272 64.5132 11.608C64.1452 11.936 63.6492 12.1 63.0252 12.1ZM71.8701 15.136C71.3821 15.136 71.0061 15.252 70.7421 15.484C70.4781 15.716 70.3461 16.008 70.3461 16.36C70.3461 16.608 70.4101 16.824 70.5381 17.008C70.6741 17.192 70.8741 17.356 71.1381 17.5C71.4101 17.644 71.7541 17.772 72.1701 17.884C73.2341 18.148 74.0981 18.456 74.7621 18.808C75.4261 19.152 75.9101 19.568 76.2141 20.056C76.5261 20.536 76.6821 21.104 76.6821 21.76C76.6821 22.784 76.3221 23.624 75.6021 24.28C74.8901 24.936 73.8021 25.264 72.3381 25.264C71.8981 25.264 71.5181 25.22 71.1981 25.132C70.8781 25.052 70.6061 24.972 70.3821 24.892C70.1581 24.804 69.9701 24.76 69.8181 24.76C69.6821 24.76 69.5701 24.804 69.4821 24.892C69.3941 24.98 69.3021 25.064 69.2061 25.144C69.1101 25.232 68.9861 25.276 68.8341 25.276C68.6581 25.276 68.4981 25.216 68.3541 25.096C68.2181 24.984 68.1021 24.784 68.0061 24.496L67.4061 22.924C67.2701 22.532 67.2381 22.208 67.3101 21.952C67.3821 21.688 67.5341 21.512 67.7661 21.424C67.9981 21.336 68.2381 21.34 68.4861 21.436C68.7341 21.532 68.9501 21.704 69.1341 21.952C69.4141 22.384 69.7101 22.744 70.0221 23.032C70.3341 23.32 70.6701 23.536 71.0301 23.68C71.3901 23.824 71.7701 23.896 72.1701 23.896C72.7621 23.896 73.1941 23.768 73.4661 23.512C73.7381 23.248 73.8741 22.924 73.8741 22.54C73.8741 22.26 73.7941 22.02 73.6341 21.82C73.4821 21.612 73.2421 21.432 72.9141 21.28C72.5941 21.12 72.1781 20.98 71.6661 20.86C70.7621 20.676 70.0021 20.424 69.3861 20.104C68.7781 19.784 68.3181 19.38 68.0061 18.892C67.6941 18.396 67.5381 17.812 67.5381 17.14C67.5381 16.476 67.7141 15.892 68.0661 15.388C68.4181 14.876 68.9061 14.476 69.5301 14.188C70.1621 13.9 70.8941 13.756 71.7261 13.756C72.2541 13.756 72.6781 13.8 72.9981 13.888C73.3261 13.976 73.5821 14.064 73.7661 14.152C73.9501 14.24 74.0901 14.284 74.1861 14.284C74.3221 14.284 74.4341 14.24 74.5221 14.152C74.6181 14.064 74.7141 13.976 74.8101 13.888C74.9061 13.8 75.0261 13.756 75.1701 13.756C75.3221 13.756 75.4581 13.808 75.5781 13.912C75.6981 14.016 75.7861 14.196 75.8421 14.452L76.2981 16.168C76.3861 16.544 76.4101 16.864 76.3701 17.128C76.3301 17.384 76.1861 17.544 75.9381 17.608C75.7461 17.656 75.5421 17.624 75.3261 17.512C75.1181 17.392 74.9181 17.192 74.7261 16.912C74.3661 16.312 73.9501 15.868 73.4781 15.58C73.0061 15.284 72.4701 15.136 71.8701 15.136ZM82.1839 17.536L81.5119 16.756L82.0639 16.228C82.9679 15.34 83.7879 14.708 84.5239 14.332C85.2679 13.948 85.9759 13.756 86.6479 13.756C87.6079 13.756 88.3799 14.068 88.9639 14.692C89.5559 15.316 89.8519 16.16 89.8519 17.224V22.468C89.8519 22.788 89.8879 23.016 89.9599 23.152C90.0399 23.28 90.1559 23.376 90.3079 23.44L90.6319 23.548C90.7919 23.644 90.9159 23.748 91.0039 23.86C91.0919 23.972 91.1359 24.116 91.1359 24.292C91.1359 24.516 91.0639 24.692 90.9199 24.82C90.7839 24.94 90.5919 25 90.3439 25H86.1799C85.6999 25 85.4599 24.764 85.4599 24.292C85.4599 24.012 85.5959 23.796 85.8679 23.644L86.2279 23.512C86.3799 23.448 86.4879 23.344 86.5519 23.2C86.6239 23.056 86.6599 22.812 86.6599 22.468V18.028C86.6599 17.388 86.5039 16.9 86.1919 16.564C85.8879 16.228 85.4759 16.06 84.9559 16.06C84.6039 16.06 84.2319 16.144 83.8399 16.312C83.4479 16.472 83.0439 16.744 82.6279 17.128L82.1839 17.536ZM82.5439 7.984V22.468C82.5439 22.812 82.5759 23.056 82.6399 23.2C82.7119 23.344 82.8239 23.448 82.9759 23.512L83.3239 23.644C83.6039 23.796 83.7439 24.012 83.7439 24.292C83.7439 24.764 83.5039 25 83.0239 25H78.8479C78.6079 25 78.4159 24.94 78.2719 24.82C78.1359 24.692 78.0679 24.516 78.0679 24.292C78.0679 24.116 78.1079 23.972 78.1879 23.86C78.2759 23.748 78.3999 23.644 78.5599 23.548L78.8959 23.44C79.0479 23.376 79.1599 23.28 79.2319 23.152C79.3039 23.016 79.3399 22.788 79.3399 22.468V10.516C79.3399 10.244 79.3039 10.052 79.2319 9.94C79.1599 9.82 79.0479 9.736 78.8959 9.688L78.3799 9.64C78.2199 9.568 78.0959 9.484 78.0079 9.388C77.9279 9.284 77.8879 9.152 77.8879 8.992C77.8879 8.816 77.9439 8.668 78.0559 8.548C78.1679 8.42 78.3479 8.308 78.5959 8.212L80.5159 7.504C80.8119 7.392 81.0559 7.308 81.2479 7.252C81.4479 7.196 81.6359 7.168 81.8119 7.168C82.0439 7.168 82.2239 7.244 82.3519 7.396C82.4799 7.54 82.5439 7.736 82.5439 7.984ZM107.091 20.728C107.043 21.24 106.863 21.768 106.551 22.312C106.239 22.848 105.803 23.348 105.243 23.812C104.691 24.276 104.015 24.652 103.215 24.94C102.423 25.22 101.511 25.36 100.479 25.36C98.8231 25.36 97.3871 24.988 96.1711 24.244C94.9631 23.5 94.0271 22.472 93.3631 21.16C92.6991 19.84 92.3671 18.324 92.3671 16.612C92.3671 15.372 92.5671 14.22 92.9671 13.156C93.3751 12.092 93.9351 11.164 94.6471 10.372C95.3671 9.58 96.2031 8.964 97.1551 8.524C98.1071 8.084 99.1351 7.864 100.239 7.864C101.015 7.864 101.639 7.936 102.111 8.08C102.591 8.224 102.971 8.372 103.251 8.524C103.531 8.668 103.755 8.74 103.923 8.74C104.091 8.74 104.219 8.672 104.307 8.536C104.403 8.4 104.503 8.268 104.607 8.14C104.719 8.004 104.871 7.936 105.063 7.936C105.263 7.936 105.415 7.996 105.519 8.116C105.623 8.236 105.723 8.46 105.819 8.788L106.995 12.748C107.067 12.996 107.039 13.216 106.911 13.408C106.783 13.6 106.591 13.716 106.335 13.756C106.111 13.788 105.907 13.756 105.723 13.66C105.539 13.564 105.387 13.384 105.267 13.12C104.875 12.208 104.451 11.492 103.995 10.972C103.539 10.444 103.035 10.068 102.483 9.844C101.939 9.62 101.331 9.508 100.659 9.508C99.9551 9.508 99.3151 9.672 98.7391 10C98.1711 10.32 97.6831 10.776 97.2751 11.368C96.8671 11.96 96.5511 12.66 96.3271 13.468C96.1111 14.276 96.0031 15.16 96.0031 16.12C96.0031 17.568 96.2431 18.804 96.7231 19.828C97.2031 20.844 97.8551 21.624 98.6791 22.168C99.5111 22.712 100.451 22.984 101.499 22.984C102.395 22.984 103.199 22.784 103.911 22.384C104.631 21.984 105.259 21.388 105.795 20.596C105.995 20.364 106.167 20.212 106.311 20.14C106.463 20.068 106.603 20.052 106.731 20.092C106.859 20.124 106.951 20.196 107.007 20.308C107.071 20.42 107.099 20.56 107.091 20.728ZM115.379 23.416V23.056L115.103 22.912V16.66C115.103 16.148 114.963 15.752 114.683 15.472C114.411 15.192 114.035 15.052 113.555 15.052C113.131 15.052 112.795 15.14 112.547 15.316C112.307 15.492 112.187 15.72 112.187 16V16.672C112.187 17.152 112.039 17.52 111.743 17.776C111.447 18.032 111.023 18.16 110.471 18.16C109.975 18.16 109.603 18.044 109.355 17.812C109.115 17.572 108.995 17.252 108.995 16.852C108.995 16.34 109.195 15.848 109.595 15.376C110.003 14.904 110.603 14.52 111.395 14.224C112.187 13.92 113.163 13.768 114.323 13.768C115.651 13.768 116.643 14.056 117.299 14.632C117.955 15.208 118.283 15.996 118.283 16.996V22.648C118.283 22.808 118.323 22.944 118.403 23.056C118.483 23.16 118.607 23.212 118.775 23.212C118.879 23.212 118.963 23.196 119.027 23.164C119.099 23.132 119.159 23.088 119.207 23.032C119.247 22.992 119.291 22.96 119.339 22.936C119.387 22.904 119.443 22.888 119.507 22.888C119.651 22.888 119.763 22.94 119.843 23.044C119.923 23.148 119.963 23.284 119.963 23.452C119.963 23.748 119.867 24.036 119.675 24.316C119.491 24.596 119.227 24.824 118.883 25C118.547 25.184 118.143 25.276 117.671 25.276C117.007 25.276 116.459 25.108 116.027 24.772C115.595 24.428 115.379 23.976 115.379 23.416ZM108.527 22.516C108.527 21.5 108.967 20.692 109.847 20.092C110.727 19.484 111.911 19.18 113.399 19.18C113.831 19.18 114.247 19.212 114.647 19.276C115.047 19.34 115.383 19.428 115.655 19.54L115.355 20.62C115.107 20.508 114.847 20.424 114.575 20.368C114.311 20.304 114.023 20.272 113.711 20.272C113.119 20.272 112.647 20.42 112.295 20.716C111.943 21.004 111.767 21.404 111.767 21.916C111.767 22.412 111.915 22.792 112.211 23.056C112.515 23.312 112.903 23.44 113.375 23.44C113.807 23.44 114.211 23.344 114.587 23.152C114.963 22.952 115.279 22.684 115.535 22.348L115.823 23.356C115.407 23.964 114.843 24.436 114.131 24.772C113.419 25.108 112.655 25.276 111.839 25.276C110.831 25.276 110.027 25.024 109.427 24.52C108.827 24.016 108.527 23.348 108.527 22.516ZM125.82 22.468C125.82 22.764 125.868 22.996 125.964 23.164C126.068 23.324 126.232 23.416 126.456 23.44L127.512 23.548C127.752 23.572 127.924 23.652 128.028 23.788C128.14 23.924 128.196 24.092 128.196 24.292C128.196 24.764 127.932 25 127.404 25H121.752C121.504 25 121.308 24.94 121.164 24.82C121.028 24.692 120.96 24.52 120.96 24.304C120.96 24.096 121.012 23.932 121.116 23.812C121.22 23.692 121.38 23.596 121.596 23.524L121.98 23.428C122.188 23.372 122.344 23.268 122.448 23.116C122.56 22.964 122.616 22.74 122.616 22.444V16.696C122.616 16.488 122.568 16.328 122.472 16.216C122.384 16.104 122.204 15.992 121.932 15.88L121.56 15.748C121.264 15.628 121.052 15.5 120.924 15.364C120.796 15.22 120.732 15.052 120.732 14.86C120.732 14.668 120.796 14.512 120.924 14.392C121.052 14.272 121.228 14.212 121.452 14.212H123.516L122.652 14.776V14.272C122.652 14.064 122.584 13.856 122.448 13.648C122.32 13.432 122.172 13.196 122.004 12.94C121.836 12.684 121.684 12.396 121.548 12.076C121.42 11.748 121.356 11.364 121.356 10.924C121.356 10.004 121.712 9.24 122.424 8.632C123.136 8.016 124.124 7.708 125.388 7.708C126.18 7.708 126.848 7.836 127.392 8.092C127.936 8.34 128.348 8.672 128.628 9.088C128.908 9.504 129.048 9.96 129.048 10.456C129.048 10.952 128.92 11.332 128.664 11.596C128.408 11.852 128.08 11.98 127.68 11.98C127.224 11.98 126.86 11.844 126.588 11.572C126.324 11.292 126.192 10.912 126.192 10.432V9.988C126.192 9.652 126.104 9.396 125.928 9.22C125.752 9.036 125.492 8.944 125.148 8.944C124.732 8.944 124.412 9.068 124.188 9.316C123.972 9.564 123.864 9.908 123.864 10.348C123.864 10.644 123.92 10.928 124.032 11.2C124.152 11.472 124.296 11.736 124.464 11.992C124.64 12.24 124.812 12.484 124.98 12.724C125.148 12.964 125.288 13.208 125.4 13.456C125.52 13.696 125.58 13.94 125.58 14.188V14.872L125.064 14.212H127.848C128.096 14.212 128.288 14.264 128.424 14.368C128.56 14.472 128.628 14.628 128.628 14.836C128.628 15.132 128.5 15.376 128.244 15.568C127.988 15.76 127.576 15.856 127.008 15.856H125.82V22.468ZM140.106 17.956C140.106 18.484 139.954 18.892 139.65 19.18C139.354 19.46 138.93 19.6 138.378 19.6H131.61V18.424H136.122C136.61 18.424 136.854 18.192 136.854 17.728C136.854 16.992 136.67 16.42 136.302 16.012C135.934 15.596 135.466 15.388 134.898 15.388C134.434 15.388 134.022 15.516 133.662 15.772C133.302 16.028 133.014 16.4 132.798 16.888C132.59 17.376 132.486 17.972 132.486 18.676C132.486 20.076 132.818 21.14 133.482 21.868C134.154 22.588 135.03 22.948 136.11 22.948C136.774 22.948 137.358 22.804 137.862 22.516C138.374 22.22 138.77 21.864 139.05 21.448C139.186 21.304 139.302 21.204 139.398 21.148C139.494 21.084 139.59 21.056 139.686 21.064C139.806 21.064 139.906 21.112 139.986 21.208C140.074 21.296 140.114 21.44 140.106 21.64C140.082 22.264 139.866 22.852 139.458 23.404C139.05 23.956 138.486 24.408 137.766 24.76C137.046 25.104 136.198 25.276 135.222 25.276C134.078 25.276 133.082 25.04 132.234 24.568C131.386 24.088 130.73 23.424 130.266 22.576C129.81 21.728 129.582 20.748 129.582 19.636C129.582 18.516 129.806 17.512 130.254 16.624C130.71 15.736 131.37 15.036 132.234 14.524C133.098 14.012 134.134 13.756 135.342 13.756C136.302 13.756 137.138 13.94 137.85 14.308C138.562 14.676 139.114 15.18 139.506 15.82C139.906 16.452 140.106 17.164 140.106 17.956Z" fill="white"/>
<defs>
<clipPath id="clip0">
<rect width="18.3521" height="18.4305" fill="white" transform="translate(4.31763 13.5696)"/>
</clipPath>
</defs>
</svg>
